<?xml version="1.0" ?><svg viewBox="0 0 512 512" xmlns="http://www.w3.org/2000/svg"><g id="a"/><g id="b"/><g id="c"><g><path d="M222.16992,333.94238l-9.59961,16c-.41211,.68652-.6084,1.48047-.56445,2.2793l8,144,7.98828-.44336-7.93262-142.77344,8.96777-14.94727-6.85938-4.11523Z"/><path d="M288.90527,333.94238l-6.85938,4.11523,9.20508,15.34277-7.93262,142.77344,7.98828,.44336,8-144c.04395-.79883-.15234-1.59277-.56445-2.2793l-9.83691-16.39551Z"/><path d="M256.02539,194.42822c-38.73706,0-70.13965,31.40259-70.13965,70.13965s31.40259,70.13965,70.13965,70.13965,70.13965-31.40283,70.13965-70.13965-31.40283-70.13965-70.13965-70.13965Zm-52.60474,70.13965c0-26.06543,18.95752-47.70337,43.83716-51.87744v43.10986l-36.15479,36.15479c-4.87378-7.97754-7.68237-17.35449-7.68237-27.38721Zm20.04956,41.32373l23.7876-23.78906,.00537,34.34326c-8.88354-1.48926-17.01245-5.20508-23.79297-10.5542Zm41.32275,10.55371v-34.34277l23.7876,23.78857c-6.7793,5.34863-14.90576,9.06396-23.7876,10.5542Zm36.15479-24.49072l-36.15479-36.1543-.00928-43.11133c24.88379,4.17041,43.84619,25.81006,43.84619,51.87891,0,10.03271-2.80859,19.40967-7.68213,27.38672Z"/><path d="M442.38379,173.83203c-.76074-.91016-1.88477-1.43652-3.07129-1.43652-9.73975,0-18.91504,2.54956-26.84619,7.08057l-36.31982-116.22412c-1.65625-5.29883-5.28809-9.61523-10.22461-12.15332-4.9375-2.53809-10.55859-2.97949-15.83203-1.24414-4.38232,1.44312-7.94678,4.26807-10.40674,7.82397l-7.26221-23.2439c-1.65527-5.29883-5.28613-9.61523-10.22266-12.15332-4.93848-2.53906-10.56055-2.97852-15.83398-1.24512-10.60352,3.49121-16.52344,15.00195-13.19629,25.6582l1.06543,3.41284c-4.3457-1.61401-9.06836-1.72534-13.54297-.25269-10.60449,3.49219-16.52441,15.00293-13.19629,25.65918l3.57275,11.44165c-3.61816-1.31348-7.63525-1.62183-11.61963-.65259-1.17139,.28418-2.29053,.68335-3.36914,1.1543-1.33838-.66309-2.74268-1.19287-4.21289-1.5498-3.98413-.96875-8.00122-.65991-11.61987,.65356l3.573-11.44263c3.32812-10.65723-2.5918-22.16797-13.19629-25.6582-4.47217-1.47534-9.19653-1.36279-13.54321,.25171l1.06567-3.41284c3.32715-10.65625-2.59277-22.16699-13.19629-25.6582-5.27246-1.7373-10.89648-1.29395-15.83203,1.24414-4.93652,2.53809-8.56836,6.85449-10.22461,12.1543l-7.26221,23.2439c-2.46021-3.55591-6.02441-6.38086-10.40674-7.82397-5.27246-1.7373-10.89551-1.29395-15.83203,1.24414s-8.56836,6.85449-10.22461,12.15332l-36.32007,116.22412c-7.93091-4.53101-17.1062-7.08057-26.84595-7.08057-1.18652,0-2.31055,.52637-3.07129,1.43652-.75977,.91113-1.07617,2.1123-.86426,3.2793l16,88c.08594,.47363,.25781,.92871,.50586,1.3418l47.25195,78.75391-23.77344,150.56445,7.90234,1.24805,24-152c.14648-.92773-.03809-1.87695-.52148-2.68164l-47.625-79.375-14.9668-82.31934c19.52148,2.01465,35.58984,16.11523,39.93457,35.66797l7.32324,32.95215c.33691,1.51562,1.52051,2.69922,3.03613,3.03613,16.56348,3.68164,30.44434,14.48145,38.08203,29.63281,7.63867,15.15039,8.06641,32.73242,1.17578,48.2373l-2.04492,4.60059,7.31055,3.25,2.04492-4.60059c7.87012-17.70703,7.37988-37.78613-1.34277-55.08887-8.33594-16.53613-23.18262-28.53418-40.99316-33.2334l-6.78223-30.52148c-2.75928-12.41846-9.54492-22.96387-18.8208-30.40454l37.0415-118.53296c1.01172-3.2373,3.22949-5.87402,6.24609-7.4248,3.01465-1.55273,6.45117-1.82422,9.67188-.75977,6.47852,2.13281,10.09473,9.16406,8.06152,15.6748l-35.10742,112.43359,7.63672,2.38477L186.52832,36.4248c1.01172-3.2373,3.22949-5.87402,6.24609-7.4248,3.01465-1.55176,6.45117-1.82324,9.67188-.75977,6.47754,2.13281,10.09473,9.16406,8.06152,15.67383l-47.02441,150.40527,7.63672,2.38672,41.26123-131.95117c1.07666-3.01074,3.20557-5.46558,6.06689-6.93652,3.0166-1.55273,6.4502-1.82324,9.67188-.75977,6.47852,2.13281,10.0957,9.16406,8.06152,15.6748l-40.76172,130.42773,7.63672,2.38672,32.44946-103.80908c1.80811-5.50049,7.23804-8.91357,12.8728-8.32178-.61377,.78076-1.19385,1.59473-1.69824,2.47461-2.78613,4.86035-3.43359,10.49316-1.82227,15.86035l6.56201,21.85645-14.78271,49.24121,7.66211,2.30078,11.29688-37.63062,11.29785,37.63062,7.66211-2.30078-22.03613-73.39844c-.97363-3.24219-.58203-6.64453,1.10156-9.58105,1.68359-2.9375,4.42188-4.99512,7.71191-5.79395,6.17578-1.4978,12.49561,2.03516,14.47266,8.05786l32.44922,103.80933,7.63672-2.38672-40.76172-130.42773c-2.0332-6.51074,1.58301-13.54199,8.06152-15.67578,3.22168-1.05957,6.65625-.79102,9.67188,.76074,2.86133,1.47095,4.99023,3.92578,6.06689,6.93652l41.26123,131.95117,7.63672-2.38672-47.02441-150.40527c-2.0332-6.50977,1.58398-13.54102,8.06152-15.67383,3.22266-1.06348,6.65723-.79004,9.67383,.75977,3.01562,1.55078,5.2334,4.1875,6.24414,7.4248l47.2168,151.12598,7.63672-2.38477-35.10742-112.43262c-2.0332-6.51074,1.58301-13.54199,8.06152-15.67578,3.22168-1.05957,6.65625-.79102,9.67188,.76074,3.0166,1.55078,5.23438,4.1875,6.24609,7.4248l37.0415,118.53296c-9.27588,7.44043-16.06104,17.98535-18.81982,30.40259l-6.7832,30.52344c-17.81055,4.69922-32.65723,16.69727-40.99316,33.2334-8.72266,17.30273-9.21289,37.38184-1.34277,55.08887l2.04492,4.60059,7.31055-3.25-2.04492-4.60059c-6.89062-15.50488-6.46289-33.08691,1.17578-48.2373,7.6377-15.15137,21.51855-25.95117,38.08203-29.63281,1.51562-.33691,2.69922-1.52051,3.03613-3.03613l7.32324-32.9541c4.34473-19.55176,20.41309-33.65137,39.93457-35.66602l-14.9668,82.31934-47.625,79.375c-.4834,.80469-.66797,1.75391-.52148,2.68164l24,152,7.90234-1.24805-23.77344-150.56445,47.25195-78.75391c.24805-.41309,.41992-.86816,.50586-1.3418l16-88c.21191-1.16699-.10449-2.36816-.86426-3.2793Z"/></g></g><g id="d"/></svg>