<?xml version="1.0" standalone="no"?>
<!DOCTYPE svg PUBLIC "-//W3C//DTD SVG 20010904//EN"
 "http://www.w3.org/TR/2001/REC-SVG-20010904/DTD/svg10.dtd">
<svg version="1.0" xmlns="http://www.w3.org/2000/svg"
 width="250.000000pt" height="336.560751pt" viewBox="0 0 250.000000 336.560751"
 preserveAspectRatio="xMidYMid meet">
<metadata>
Created by potrace 1.11, written by Peter Selinger 2001-2013
</metadata>
<g transform="translate(0.000000,336.560751) scale(0.100000,-0.100000)"
fill="#000000" stroke="none">
<path d="M1030 3352 c-158 -52 -297 -160 -388 -301 -47 -73 -48 -76 -26 -85
14 -5 12 -12 -11 -53 l-26 -48 21 -17 c17 -14 20 -25 16 -64 -3 -31 -1 -42 5
-33 5 8 9 24 9 37 0 12 3 22 8 22 8 0 72 121 72 137 0 11 48 58 54 52 2 -2 7
-78 10 -168 3 -90 11 -170 16 -176 7 -9 7 -21 0 -39 -7 -20 -7 -25 2 -20 8 5
9 -2 5 -24 -8 -38 0 -62 19 -62 21 0 -50 -115 -73 -116 -10 -1 -24 -2 -31 -3
-10 -1 -12 -30 -9 -131 3 -71 0 -130 -4 -130 -5 0 -9 -6 -9 -14 0 -8 -4 -18
-10 -21 -6 -3 -7 1 -4 9 3 9 1 16 -4 16 -6 0 -12 8 -15 18 -2 9 -4 -14 -4 -51
-1 -54 -5 -71 -19 -81 -17 -13 -17 -14 4 -25 13 -7 23 -24 26 -44 2 -17 10
-70 16 -117 13 -102 42 -206 76 -275 50 -104 366 -369 392 -329 18 27 74 24
192 -10 23 -7 23 -6 -5 14 l-30 21 30 -2 c43 -2 53 1 30 10 -16 7 -8 11 38 21
42 10 57 18 57 30 0 19 23 43 32 35 3 -3 11 1 18 10 11 13 9 15 -14 15 -15 0
-35 -4 -44 -9 -23 -12 -119 6 -158 30 -38 23 -44 24 -44 4 0 -17 -35 -21 -45
-5 -3 5 -23 17 -43 27 -20 9 -40 21 -43 26 -3 5 -9 8 -13 8 -19 -3 -26 1 -35
18 -9 16 -3 21 56 41 72 24 92 28 171 34 102 7 76 38 -38 47 -114 8 -126 24
-25 34 33 3 97 10 143 16 74 9 87 8 129 -11 60 -26 83 -11 40 26 -33 28 -45
29 -112 9 -29 -9 -62 -13 -80 -9 -16 4 -52 8 -80 9 -88 4 -144 26 -145 58 0 4
6 7 13 6 28 -3 38 2 47 26 13 35 37 31 54 -10 24 -56 35 -43 32 35 -4 74 -18
99 -58 100 -9 0 -21 6 -25 14 -8 15 0 179 12 254 5 24 2 88 -6 147 -13 103
-14 105 -50 135 -41 33 -129 53 -170 38 -17 -7 -26 -5 -34 5 -5 8 -16 12 -22
10 -18 -6 -16 12 1 27 16 13 11 105 -7 128 -6 8 -6 12 2 12 15 0 14 37 -1 43
-10 4 -10 8 -2 14 19 14 28 74 13 84 -10 6 -11 9 -1 9 14 0 17 36 3 44 -16 11
-20 76 -5 104 7 15 14 34 14 43 0 9 7 32 15 52 11 28 21 36 50 41 19 4 35 11
35 16 0 6 9 10 21 10 12 0 23 8 26 20 6 22 18 26 28 10 3 -5 1 -10 -6 -10 -7
0 -10 -2 -8 -5 7 -7 79 17 79 27 0 4 -8 8 -18 8 -30 0 -35 13 -12 30 12 9 22
25 23 37 0 12 5 19 10 16 5 -3 19 -1 30 5 12 6 40 14 62 17 32 6 36 9 20 15
-17 6 -17 7 7 12 15 3 25 2 23 -2 -2 -4 29 -17 70 -30 41 -13 75 -27 75 -32 0
-4 5 -8 10 -8 13 0 101 -40 120 -55 8 -6 31 -18 50 -25 57 -22 99 -60 121
-109 11 -25 22 -50 23 -56 6 -30 31 -93 42 -110 12 -16 14 -17 14 -3 0 9 4 19
9 22 5 4 7 -2 5 -12 -3 -9 -1 -28 4 -42 13 -34 6 93 -7 145 -14 54 -12 67 4
30 11 -25 15 -27 20 -13 19 47 -67 170 -150 215 -16 9 -43 31 -59 50 -34 39
-56 53 -94 58 -15 2 -70 15 -122 28 -69 18 -124 25 -205 26 -60 1 -123 4 -140
6 -16 3 -55 -4 -85 -13z m-150 -849 c-1 -14 -30 -47 -36 -41 -10 11 7 48 22
48 8 0 14 -3 14 -7z m160 -223 c0 -11 4 -20 10 -20 5 0 7 -7 4 -15 -7 -17 22
-85 36 -85 6 0 6 -10 0 -26 -6 -14 -11 -43 -12 -65 -1 -21 -5 -39 -10 -39 -4
0 -8 -7 -8 -16 0 -10 -5 -14 -15 -10 -23 9 -30 -22 -10 -44 15 -17 15 -18 0
-16 -9 1 -21 9 -27 17 -7 11 -11 11 -15 2 -2 -7 -18 -13 -34 -13 -24 0 -29 4
-29 24 0 23 -23 56 -39 56 -4 0 -14 12 -21 28 -19 37 -51 72 -66 72 -17 0 -47
61 -35 73 6 6 14 -1 23 -17 l13 -26 39 35 c22 19 44 35 50 35 6 0 5 5 -2 12
-7 7 -12 16 -12 22 0 5 3 6 7 3 3 -4 12 -2 19 4 8 7 14 7 19 -1 10 -17 54 -11
73 9 23 25 42 26 42 1z m79 -36 c-7 -8 -18 -13 -26 -10 -8 3 -11 1 -8 -4 3 -6
-1 -10 -10 -10 -24 0 -13 22 21 41 31 17 44 8 23 -17z"/>
<path d="M726 2652 c-10 -17 -2 -74 11 -79 17 -7 20 -4 28 30 6 22 4 26 -8 21
-12 -4 -14 -1 -10 15 5 20 -10 30 -21 13z"/>
<path d="M584 2584 c-9 -28 -8 -34 4 -34 9 0 12 -6 7 -17 -14 -36 -14 -79 -1
-118 l14 -40 7 37 c4 21 5 45 1 53 -3 9 -2 14 3 11 5 -3 7 11 6 31 -3 31 1 42
28 67 18 17 38 30 44 28 7 -2 13 2 13 8 0 15 -36 12 -54 -5 -14 -14 -44 -11
-56 6 -3 4 -10 -8 -16 -27z"/>
<path d="M480 2500 c0 -12 -7 -20 -16 -20 -12 0 -14 -5 -9 -17 4 -10 16 -45
25 -78 35 -119 63 -160 85 -125 10 16 25 1 18 -18 -6 -16 -6 -16 10 0 21 21
22 57 2 85 -10 14 -13 32 -9 48 3 14 3 33 -1 42 -6 15 -10 12 -21 -17 -16 -39
-13 -7 4 46 9 27 8 32 -6 29 -10 -1 -16 -9 -14 -18 1 -8 -2 -18 -8 -22 -6 -3
-10 4 -10 17 0 16 -3 19 -9 10 -7 -11 -10 -10 -15 3 -3 9 -6 25 -6 36 0 10 -4
19 -10 19 -5 0 -10 -9 -10 -20z"/>
<path d="M2047 2493 c-11 -10 -8 -43 3 -43 6 0 10 4 10 9 0 5 3 16 6 25 6 16
-7 22 -19 9z"/>
<path d="M1424 2439 c-3 -5 -14 -9 -24 -9 -10 0 -25 -6 -33 -14 -8 -9 -24 -12
-36 -9 -16 4 -21 1 -21 -15 0 -11 7 -22 15 -26 11 -4 14 -13 9 -31 -7 -28 12
-35 35 -12 10 10 16 8 28 -11 15 -21 17 -21 34 -6 16 14 18 14 29 -5 19 -37
87 -23 103 21 3 11 9 11 26 0 13 -7 21 -8 21 -2 0 14 -47 32 -87 33 -52 2 -42
27 10 27 30 0 53 -7 77 -25 19 -14 43 -25 53 -25 19 0 19 1 -2 19 -16 14 -18
21 -9 24 8 4 5 8 -9 12 -13 4 -21 11 -18 15 3 5 -9 12 -27 15 -18 4 -44 12
-58 18 -33 13 -109 17 -116 6z"/>
<path d="M560 2189 c0 -4 5 -11 10 -14 6 -4 8 -16 4 -27 -3 -11 -3 -35 0 -53
5 -26 11 -33 26 -30 13 3 17 -1 13 -11 -3 -8 0 -14 6 -14 14 0 14 17 0 95 -10
56 -13 63 -35 63 -13 0 -24 -4 -24 -9z"/>
<path d="M1343 1867 c-32 -14 -29 -27 7 -27 19 0 30 5 30 14 0 21 -12 25 -37
13z"/>
<path d="M684 1528 c-11 -13 -29 -36 -39 -53 -24 -39 -98 -117 -158 -167 -35
-30 -77 -50 -160 -79 -62 -20 -154 -56 -206 -78 -52 -23 -101 -41 -108 -41
-11 0 -13 -102 -13 -555 l0 -555 670 0 c369 0 670 2 670 4 0 10 -270 680 -362
901 -66 156 -122 272 -159 330 -86 133 -112 198 -107 263 3 28 2 52 -2 52 -4
0 -15 -10 -26 -22z"/>
<path d="M1620 1442 c-8 -3 -22 -13 -30 -22 -8 -9 -26 -24 -40 -33 -13 -9 -20
-17 -14 -17 10 0 51 26 71 46 7 7 18 14 25 17 7 2 11 7 8 9 -3 3 -12 3 -20 0z"/>
<path d="M1761 1335 c1 -63 14 -119 69 -280 59 -176 111 -369 146 -545 28
-145 74 -442 74 -482 l0 -28 225 0 225 0 0 503 0 503 -47 16 c-222 76 -513
182 -533 195 -14 8 -55 47 -92 87 l-68 71 1 -40z"/>
<path d="M1476 999 c-43 -7 -58 -17 -118 -76 -68 -66 -99 -106 -79 -101 12 4
185 -127 210 -158 19 -24 19 -25 -5 -101 -32 -103 -44 -214 -44 -405 l0 -158
215 0 215 0 -10 26 c-6 14 -32 76 -59 137 -34 78 -60 160 -86 272 -20 88 -40
174 -46 191 -18 59 -2 240 23 255 14 9 -38 66 -86 93 -54 32 -72 35 -130 25z"/>
</g>
</svg>
