<?xml version="1.0" encoding="iso-8859-1"?>
<!-- Generator: Adobe Illustrator 16.0.0, SVG Export Plug-In . SVG Version: 6.00 Build 0)  -->
<!DOCTYPE svg PUBLIC "-//W3C//DTD SVG 1.1//EN" "http://www.w3.org/Graphics/SVG/1.1/DTD/svg11.dtd">
<svg version="1.1" id="Capa_1" xmlns="http://www.w3.org/2000/svg" xmlns:xlink="http://www.w3.org/1999/xlink" x="0px" y="0px"
	 width="32.047px" height="32.048px" viewBox="0 0 32.047 32.048" style="enable-background:new 0 0 32.047 32.048;"
	 xml:space="preserve">
<g>
	<path d="M25.167,4.173c-0.083-0.875-3.495-1.844-6.271-1.458c-1.191,0.166-1.563,0.146-1.833,0c-0.27-0.146,0.229-1-0.042-1.563
		c-0.271-0.563-0.885-0.396-0.885-0.396s-0.552-0.833-1.886-0.75s-1.641,1.559-1.833,2.167s0.604,1.211,0.792,1.375
		s0.208,0.938,0.208,0.938l0.354-0.104c0,0,0.292,0.479,0.287,0.685c-0.004,0.202-0.787,0.627-0.975,1.106s-1.188,2.813-1.125,3.625
		s0.887,1.887,0.887,1.887l0.551-0.241c0,0,0.475,0.285,0.625,0.375s0.125,0.813,0.125,1.104s-0.542,1.813-1.063,2.417
		c-0.437,0.507-1.412,1.083-1.708,1.208s0.167,1.042,0.167,1.042s-0.641-0.25-1.021-0.146c-0.38,0.104-0.167,1.188-0.167,1.188
		s-0.646,0.182-1.063,0.042c-0.417-0.141-0.828-0.104-0.958,0.167c-0.13,0.271,0.532,1.191,0.771,1.458
		c0.239,0.266,0.177,1.016-0.042,1.438c-0.219,0.422,0.833,0.833,0.833,0.833s-0.563,5.688-0.688,5.813s-0.375,0.354-0.542,0.542
		c-0.167,0.188-0.045,1.074-0.333,1.25s-1.063,0.709-1.292,0.792S6.894,31.57,6.894,31.57s1.635,0,2,0c0.24,0,1.333-1.62,1.5-1.562
		c0.167,0.057,0.229,0.708,0.229,0.708h0.5c0,0,0.477-1.173,0.333-1.479c-0.144-0.306-0.429-0.494-0.417-0.896
		c0.012-0.402,0.021-0.688,0.021-0.688s0.386,0.151,0.646,0c0.26-0.15,0.396-0.479,0.396-0.479s0.474,0.692,0.833,0.667
		c0.359-0.026,0.417,0.229,0.417,0.229s0.026,0.375-0.25,0.771c-0.276,0.396,0.604,0.167,0.604,0.167s-0.11,0.287-0.354,0.625
		c-0.244,0.338,1.282,0.104,1.667,0.042c0.385-0.062,0.688-0.292,0.688-0.292s0.01,0.396-0.271,0.688
		c-0.281,0.292,0.833,0.271,0.833,0.271s0.234,0.297,0.333,0.542c0.099,0.245,1.083,0.062,1.083,0.062s0.052,0.178,0.292,0.375
		c0.239,0.198,0.958,0.25,0.958,0.25s0.042,0.458,1.146,0.458c1.104,0,2.474,0.042,2.75,0s-0.167-1.625-0.167-1.625
		s0.932,0.292,0.563-0.25c-0.369-0.542-0.75-1.729-0.75-1.729s0.775,0.156,0.375-0.375c-0.401-0.531-0.771-2.208-0.771-2.208
		s1.393,0.174,0.857-0.481c-0.535-0.654-0.67-1.894-0.67-1.894s1.217,0.329,0.747-0.481c-0.471-0.81-0.747-1.977-0.747-1.977
		s1.312,0.479,0.833-0.708c-0.48-1.188-1.218-2.881-1.042-3.354c0.175-0.473,0.521-1.104,0.479-2.667s-1.331-3.535-1.458-3.875
		c-0.127-0.34-0.042-0.813-0.042-0.813s0.229,0.542,0.333,0.438c0.104-0.104,0.125-0.438,0.125-0.438s0.208,0.25,0.313,0.083
		c0.104-0.167-0.146-0.833,0.354-1.354c0.312-0.325,0.271-1.125,0.271-1.125S25.25,5.048,25.167,4.173z M15.734,11.72
		c-0.062,0.068-0.264-0.32-0.75-0.578c-0.766-0.406-1.302-0.979-1.328-1.234c-0.047-0.453,0.734-1.25,1.188-2.031
		c0.141,1,0.712,1.642,0.891,2.109C15.938,10.517,15.875,11.564,15.734,11.72z M21.468,6.72c-0.142,0.296-0.516,1.141-0.733,1.156
		c0.108-1.438-0.469-2.563-0.094-2.844c0.375-0.281,2.047,0,2.375,0C22.296,5.736,21.61,6.424,21.468,6.72z"/>
</g>
<g>
</g>
<g>
</g>
<g>
</g>
<g>
</g>
<g>
</g>
<g>
</g>
<g>
</g>
<g>
</g>
<g>
</g>
<g>
</g>
<g>
</g>
<g>
</g>
<g>
</g>
<g>
</g>
<g>
</g>
</svg>
