<?xml version="1.0" standalone="no"?>
<!DOCTYPE svg PUBLIC "-//W3C//DTD SVG 20010904//EN"
 "http://www.w3.org/TR/2001/REC-SVG-20010904/DTD/svg10.dtd">
<svg version="1.0" xmlns="http://www.w3.org/2000/svg"
 width="224.000000pt" height="224.000000pt" viewBox="0 0 224.000000 224.000000"
 preserveAspectRatio="xMidYMid meet">

<g transform="translate(0.000000,224.000000) scale(0.100000,-0.100000)"
fill="#000000" stroke="none">
<path d="M799 2216 c-9 -18 -6 -42 11 -107 13 -46 23 -105 24 -131 1 -53 10
-67 34 -52 21 14 27 50 12 69 -7 8 -10 21 -7 29 6 15 -16 167 -28 199 -10 24
-34 21 -46 -7z"/>
<path d="M654 2196 c-3 -13 2 -40 10 -61 9 -21 16 -50 16 -66 0 -16 9 -43 20
-61 11 -18 20 -41 20 -50 0 -21 28 -50 41 -43 12 8 12 50 0 73 -8 15 -26 84
-46 177 -12 56 -50 75 -61 31z"/>
<path d="M1480 2158 c-44 -73 -60 -164 -24 -140 25 17 85 123 82 144 -5 36
-35 34 -58 -4z"/>
<path d="M944 2127 c-3 -8 0 -41 7 -74 14 -67 13 -151 -3 -170 -6 -7 -19 -13
-29 -13 -24 0 -32 -32 -24 -96 5 -39 11 -54 22 -54 12 0 13 -3 4 -14 -10 -11
-9 -21 3 -45 18 -34 21 -91 6 -91 -5 0 -10 5 -10 10 0 6 -12 24 -27 41 -41 47
-52 57 -63 61 -14 4 0 78 15 78 29 0 36 96 8 104 -61 17 -83 17 -89 2 -3 -9
-17 -16 -30 -16 -14 0 -23 -5 -21 -12 1 -7 -9 -14 -21 -16 -22 -3 -23 -1 -18
25 5 21 1 37 -12 54 -15 20 -40 89 -68 192 -7 21 -36 38 -52 28 -7 -4 -13 -18
-14 -32 -3 -33 50 -166 68 -173 10 -4 13 -13 9 -25 -4 -13 3 -26 22 -42 15
-13 43 -54 62 -92 29 -56 32 -71 23 -90 -6 -12 -12 -31 -14 -41 -7 -42 -31
-40 -102 8 -74 50 -103 61 -141 52 -44 -11 -29 -36 43 -67 105 -47 129 -61
190 -110 100 -80 171 -105 218 -74 14 9 40 17 57 17 83 2 114 60 104 200 -3
45 -9 84 -14 87 -15 10 -33 118 -38 224 -3 68 -9 109 -22 134 -20 41 -40 53
-49 30z"/>
<path d="M1622 2053 c-33 -43 -69 -87 -80 -98 -33 -35 -45 -64 -31 -81 25 -31
79 -1 79 44 0 12 6 22 13 22 16 0 137 134 137 152 0 19 -21 38 -41 38 -10 0
-44 -34 -77 -77z"/>
<path d="M1719 1993 c-20 -21 -46 -53 -59 -71 -20 -30 -21 -35 -8 -49 14 -13
22 -8 77 42 62 58 78 96 45 109 -9 3 -17 6 -18 6 -1 0 -18 -17 -37 -37z"/>
<path d="M1076 2001 c-3 -5 7 -55 23 -112 19 -65 34 -153 41 -234 7 -71 17
-139 22 -150 20 -38 41 -55 69 -55 22 0 29 -6 34 -29 3 -15 17 -34 31 -41 22
-12 31 -10 85 16 34 16 72 41 84 56 13 16 28 28 33 28 9 0 80 77 100 109 18
30 16 101 -3 101 -8 0 -20 9 -27 20 -7 11 -20 20 -29 20 -12 0 -15 7 -11 25 6
33 -22 75 -51 75 -13 0 -38 15 -57 35 -40 41 -62 35 -80 -22 -15 -47 -37 -73
-62 -73 -10 0 -21 -6 -24 -14 -8 -20 -51 -7 -70 22 -10 16 -18 50 -19 92 -3
70 -23 123 -50 134 -23 8 -33 8 -39 -3z m400 -325 c-30 -40 -84 -81 -94 -72
-3 4 0 11 7 15 11 7 10 13 -4 35 -17 26 -17 26 11 26 16 1 45 9 64 20 19 10
37 16 39 14 2 -2 -8 -19 -23 -38z"/>
<path d="M1406 1984 c-19 -19 -21 -74 -3 -74 22 0 37 23 37 57 0 36 -10 41
-34 17z"/>
<path d="M1596 1848 c-23 -32 -20 -48 9 -48 18 0 26 7 31 24 11 46 -14 61 -40
24z"/>
<path d="M1774 1793 c-14 -16 -33 -36 -42 -46 -12 -13 -13 -20 -4 -29 20 -20
102 46 102 84 0 26 -27 22 -56 -9z"/>
<path d="M253 1673 c-27 -10 -10 -34 45 -62 31 -16 76 -43 100 -60 40 -30 43
-34 41 -76 -2 -35 2 -49 17 -60 36 -29 76 -46 90 -41 8 3 17 -1 20 -9 4 -8 16
-15 28 -15 11 0 37 -14 56 -30 l35 -30 -68 1 c-41 2 -72 -2 -79 -9 -18 -18
-38 -14 -38 7 0 10 -7 21 -15 25 -9 3 -15 18 -15 35 0 28 -32 71 -52 71 -5 0
-25 -12 -44 -27 -23 -20 -34 -36 -34 -55 0 -15 -5 -30 -11 -34 -8 -4 -7 -9 2
-15 11 -6 11 -13 3 -26 -16 -26 -35 -28 -41 -4 -4 15 -13 21 -35 21 -16 0 -70
16 -120 35 -100 39 -133 41 -133 10 0 -29 56 -61 132 -75 37 -6 75 -14 83 -17
8 -4 38 -5 67 -4 28 2 67 -2 85 -8 18 -6 45 -13 61 -16 15 -3 27 -12 27 -20 0
-8 9 -23 20 -32 11 -10 20 -27 20 -39 0 -19 -13 -26 -87 -50 -47 -15 -95 -36
-105 -46 -20 -20 -24 -53 -8 -63 10 -6 19 -2 122 56 41 23 89 40 138 48 41 8
85 17 97 22 36 13 103 80 103 102 0 12 12 38 27 59 41 60 36 89 -28 155 -53
54 -130 99 -155 89 -7 -3 -20 4 -29 14 -9 10 -31 22 -49 26 -17 3 -49 23 -71
43 -66 61 -173 116 -202 104z"/>
<path d="M93 1622 c-25 -16 10 -56 77 -89 36 -17 72 -32 81 -32 8 -1 26 -12
39 -26 26 -28 58 -33 66 -10 7 18 -13 45 -33 45 -9 0 -36 15 -62 34 -38 28
-143 86 -153 86 -2 0 -8 -4 -15 -8z"/>
<path d="M10 1482 c0 -21 19 -36 75 -58 178 -71 208 -78 203 -43 -2 16 -15 25
-46 34 -23 7 -54 20 -67 29 -13 9 -32 16 -41 16 -10 0 -25 7 -34 15 -10 9 -34
19 -54 22 -32 5 -36 3 -36 -15z"/>
<path d="M1020 802 c-30 -9 -63 -48 -86 -101 -13 -29 -22 -57 -19 -61 3 -4 -2
-26 -9 -48 -11 -31 -12 -42 -3 -45 9 -3 9 -8 0 -18 -7 -7 -13 -31 -13 -54 0
-51 28 -78 87 -82 l41 -2 11 67 c6 37 12 81 14 97 2 35 21 40 25 8 2 -15 10
-23 22 -23 22 0 39 -22 22 -28 -7 -2 -12 -8 -12 -13 0 -6 6 -7 13 -3 8 5 8 2
-2 -9 -15 -18 -26 -23 -16 -7 10 17 -3 11 -30 -12 -16 -13 -25 -32 -25 -50 0
-28 13 -37 25 -18 3 6 1 10 -4 10 -6 0 -11 5 -11 10 0 7 6 7 18 1 30 -16 56
-24 77 -23 19 2 19 1 1 -6 -18 -8 -18 -9 5 -25 39 -28 89 -19 89 16 0 11 -4
34 -10 51 -5 17 -14 52 -21 79 -9 35 -16 47 -30 47 -14 0 -19 7 -19 25 0 18 5
25 20 25 12 0 20 -7 20 -17 0 -34 25 -90 38 -85 16 5 16 39 0 45 -7 2 11 7 41
12 57 8 96 -5 106 -34 3 -9 23 -35 46 -58 32 -34 48 -43 75 -43 19 0 34 2 34
4 0 10 -46 53 -75 72 -16 10 -33 24 -38 31 -4 7 -14 10 -22 7 -9 -4 -15 0 -15
10 0 8 -12 19 -26 22 -14 4 -21 10 -15 13 12 8 -52 81 -71 81 -16 0 -38 19
-38 33 0 5 7 1 16 -8 9 -9 19 -13 22 -10 8 8 -67 84 -100 101 -39 20 -78 18
-78 -3 0 -15 2 -16 10 -3 12 18 12 2 0 -25 -8 -18 -9 -18 -9 -2 -1 10 -9 20
-18 24 -10 3 -25 12 -33 18 -8 7 -22 10 -30 7z m39 -38 c2 -2 -2 -4 -10 -5 -8
0 -24 -2 -36 -3 -23 -3 -29 4 -17 17 6 6 53 -1 63 -9z m142 -10 c18 -21 21
-52 9 -72 -8 -13 -9 -11 -4 10 4 20 1 29 -14 37 -27 14 -53 15 -32 1 8 -5 11
-10 5 -10 -5 0 -17 5 -25 10 -11 7 -11 10 -2 10 8 0 10 5 6 12 -5 8 -2 9 9 5
46 -19 53 -19 33 -3 -11 9 -15 16 -9 16 6 0 17 -7 24 -16z m-112 2 c-2 -2 -15
-9 -29 -15 -24 -11 -24 -11 -6 3 16 13 49 24 35 12z m-84 -26 c-3 -5 -10 -10
-16 -10 -5 0 -9 5 -9 10 0 6 7 10 16 10 8 0 12 -4 9 -10z m135 -19 c0 -6 -4
-13 -10 -16 -5 -3 -10 1 -10 9 0 9 5 16 10 16 6 0 10 -4 10 -9z m-160 -11 c0
-5 -7 -10 -15 -10 -8 0 -15 -7 -15 -15 0 -8 -4 -15 -10 -15 -5 0 -6 8 -3 18
10 27 43 44 43 22z m110 0 c0 -5 -4 -10 -10 -10 -5 0 -10 5 -10 10 0 6 5 10
10 10 6 0 10 -4 10 -10z m161 -42 c11 -21 11 -22 -4 -9 -10 7 -17 17 -17 22 0
15 9 10 21 -13z m-208 -11 c4 -10 -2 -13 -19 -9 -13 2 -21 8 -18 13 8 14 31
11 37 -4z m147 3 c0 -5 -9 -10 -21 -10 -11 0 -17 5 -14 10 3 6 13 10 21 10 8
0 14 -4 14 -10z m-237 -15 c-3 -9 -8 -14 -10 -11 -3 3 -2 9 2 15 9 16 15 13 8
-4z m152 -22 c4 -16 8 -36 10 -45 2 -10 -1 -18 -6 -18 -5 0 -9 13 -9 29 0 16
-7 37 -16 45 -14 14 -14 16 0 16 9 0 18 -12 21 -27z m200 5 c-6 -17 -4 -20 9
-15 9 4 16 3 16 -2 0 -18 -15 -20 -32 -5 -14 13 -15 20 -7 31 16 19 21 16 14
-9z m-275 -18 c0 -4 -18 -10 -40 -12 -46 -4 -50 14 -4 23 31 6 44 3 44 -11z
m-70 -59 c0 -23 -18 -10 -29 20 -15 44 -14 46 9 16 11 -14 20 -30 20 -36z
m-32 -6 c-3 -3 -9 2 -12 12 -6 14 -5 15 5 6 7 -7 10 -15 7 -18z m77 -15 c0 -9
-9 -15 -22 -14 -17 0 -23 -5 -24 -20 -1 -16 -2 -17 -6 -4 -6 25 16 60 35 56 9
-2 17 -10 17 -18z m-71 -15 c-4 -8 -11 -12 -16 -9 -6 4 -5 10 3 15 19 12 19
11 13 -6z m506 -1 c0 -8 -19 -13 -24 -6 -3 5 1 9 9 9 8 0 15 -2 15 -3z m-487
-64 c3 -11 1 -20 -4 -20 -5 0 -9 5 -9 11 0 6 -7 8 -16 5 -12 -5 -15 -2 -10 10
3 8 6 20 6 26 0 17 27 -10 33 -32z m64 14 c2 -13 1 -15 -4 -4 -3 8 -11 19 -17
23 -7 6 -6 7 4 4 8 -2 16 -12 17 -23z m173 5 c0 -18 -2 -19 -15 -9 -8 7 -15
16 -15 21 0 5 7 9 15 9 9 0 15 -9 15 -21z m284 6 c3 -8 1 -15 -4 -15 -6 0 -10
7 -10 15 0 8 2 15 4 15 2 0 6 -7 10 -15z m-357 -22 c0 -16 -2 -22 -4 -15 -4 9
-9 10 -18 2 -9 -7 -16 -6 -26 7 -12 15 -12 16 3 10 9 -3 22 1 28 9 17 19 18
18 17 -13z m-117 -28 c0 -17 -2 -17 -14 5 -7 14 -11 29 -8 34 6 12 22 -15 22
-39z m207 5 c-3 -11 0 -23 5 -27 7 -3 8 -1 4 5 -4 7 -2 12 4 12 17 0 7 -23
-11 -25 -15 -3 -21 17 -13 43 6 20 17 13 11 -8z"/>
<path d="M1080 390 c0 -5 10 -10 23 -11 21 -1 21 -1 -3 -8 -14 -4 -28 -3 -32
3 -9 14 -22 1 -13 -13 3 -6 18 -8 33 -5 21 4 24 3 12 -5 -17 -12 -10 -14 14
-5 22 8 20 31 -3 44 -25 13 -31 13 -31 0z"/>
<path d="M1230 315 c-11 -13 -10 -22 3 -51 21 -43 39 -36 33 13 -6 45 -19 59
-36 38z"/>
<path d="M1007 280 c-12 -17 -13 -28 -6 -42 21 -40 47 -8 32 39 l-9 27 -17
-24z m13 -20 c0 -5 -5 -10 -11 -10 -5 0 -7 5 -4 10 3 6 8 10 11 10 2 0 4 -4 4
-10z"/>
<path d="M1091 277 c-6 -7 -11 -38 -11 -68 0 -70 -6 -136 -15 -176 -7 -32 -7
-32 28 -31 l35 1 7 81 c12 152 11 186 -5 196 -20 13 -26 12 -39 -3z m41 -31
c7 4 8 2 4 -4 -9 -16 -36 -3 -36 17 1 14 2 14 11 -2 6 -9 15 -14 21 -11z m-2
-71 c0 -5 -9 1 -20 15 -11 14 -20 30 -20 35 0 6 9 -1 20 -15 11 -14 20 -29 20
-35z m-6 -24 c3 8 3 -2 0 -21 -3 -19 -6 -40 -7 -47 0 -6 -6 -9 -12 -7 -7 3
-11 25 -11 54 1 42 3 46 12 28 9 -16 13 -18 18 -7z m-4 -126 c0 -5 -5 -3 -10
5 -5 8 -10 20 -10 25 0 6 5 3 10 -5 5 -8 10 -19 10 -25z"/>
<path d="M829 253 c-5 -16 -12 -34 -14 -41 -8 -22 6 -62 21 -62 21 0 38 51 25
72 -7 11 -7 19 -1 23 16 10 12 35 -5 35 -9 0 -20 -12 -26 -27z m21 -38 c11
-13 10 -14 -4 -9 -9 3 -16 10 -16 15 0 13 6 11 20 -6z"/>
<path d="M1252 189 c-1 -17 2 -28 7 -25 5 3 4 -13 -1 -39 -16 -73 28 -137 54
-79 10 21 10 28 1 31 -7 3 -10 10 -7 17 8 20 -26 126 -40 126 -6 0 -13 -14
-14 -31z m38 -127 c-6 -2 -7 -9 -4 -14 4 -6 2 -8 -4 -5 -5 4 -8 16 -5 28 4 16
8 17 14 7 5 -7 4 -14 -1 -16z"/>
<path d="M984 173 c-4 -15 -8 -57 -8 -93 -1 -52 2 -65 16 -68 12 -2 19 9 28
50 16 71 10 132 -12 136 -12 2 -20 -6 -24 -25z m24 -28 c-3 -3 -9 2 -12 12 -6
14 -5 15 5 6 7 -7 10 -15 7 -18z m2 -87 c0 -5 -5 -6 -12 -2 -8 5 -9 2 -5 -9 3
-10 2 -17 -3 -17 -6 0 -10 11 -10 25 0 18 4 23 15 19 8 -4 15 -10 15 -16z"/>
</g>
</svg>
