<?xml version="1.0" standalone="no"?>
<!DOCTYPE svg PUBLIC "-//W3C//DTD SVG 20010904//EN"
 "http://www.w3.org/TR/2001/REC-SVG-20010904/DTD/svg10.dtd">
<svg version="1.0" xmlns="http://www.w3.org/2000/svg"
 width="772.000000pt" height="1280.000000pt" viewBox="0 0 772.000000 1280.000000"
 preserveAspectRatio="xMidYMid meet">
<metadata>
Created by potrace 1.15, written by Peter Selinger 2001-2017
</metadata>
<g transform="translate(0.000000,1280.000000) scale(0.100000,-0.100000)"
fill="#000000" stroke="none">
<path d="M2730 12190 c-65 -5 -96 -21 -165 -83 -19 -18 -133 -106 -364 -284
-108 -83 -115 -91 -136 -148 -12 -33 -29 -73 -38 -90 -9 -16 -17 -37 -17 -46
0 -8 -7 -24 -15 -35 -8 -10 -15 -27 -15 -36 0 -9 -7 -29 -15 -45 -8 -15 -26
-59 -41 -98 -14 -38 -32 -79 -38 -90 -7 -11 -21 -43 -30 -71 -9 -28 -25 -68
-36 -90 -11 -21 -20 -45 -20 -54 0 -8 -9 -30 -20 -47 -18 -30 -18 -36 -5 -65
24 -55 85 -215 85 -223 0 -5 6 -16 13 -24 7 -9 20 -36 27 -61 8 -25 24 -70 38
-100 99 -227 182 -438 182 -462 0 -15 51 -38 86 -38 23 0 104 -53 124 -80 16
-23 18 -33 10 -55 -5 -14 -10 -49 -10 -77 0 -33 -6 -59 -19 -77 -11 -15 -26
-46 -33 -69 -9 -30 -19 -43 -37 -47 -33 -8 -111 -66 -151 -112 -29 -33 -37
-36 -108 -44 -117 -12 -188 -26 -229 -44 -21 -9 -53 -23 -71 -31 -47 -20 -118
-89 -142 -138 -27 -57 -27 -155 1 -239 37 -112 137 -197 279 -238 68 -19 73
-26 66 -82 -6 -58 17 -114 63 -148 16 -12 32 -35 35 -51 4 -18 14 -32 26 -35
28 -7 39 -58 32 -150 -7 -83 -7 -107 -3 -538 1 -154 2 -291 2 -305 -1 -14 0
-96 2 -184 l4 -158 -31 -19 c-17 -10 -41 -19 -54 -19 -12 0 -42 -10 -65 -22
-23 -12 -49 -23 -57 -24 -8 -2 -23 -7 -35 -12 -53 -24 -78 -32 -108 -32 -18 0
-37 -4 -43 -10 -5 -5 -52 -25 -104 -44 -102 -37 -255 -113 -307 -152 -17 -13
-44 -29 -60 -36 -24 -11 -45 -29 -82 -73 -5 -5 -27 -27 -50 -49 -23 -21 -54
-55 -69 -75 -15 -20 -30 -38 -33 -41 -4 -3 -14 -23 -23 -44 -9 -21 -38 -71
-64 -110 -26 -39 -58 -98 -71 -131 -12 -33 -27 -69 -31 -80 -5 -11 -11 -31
-13 -45 -3 -14 -13 -52 -22 -85 -28 -101 -45 -290 -44 -485 1 -206 1 -189 -1
-360 -1 -177 9 -888 14 -930 19 -159 29 -2122 13 -2480 -5 -102 -11 -230 -14
-285 -9 -177 -6 -208 21 -268 14 -31 26 -62 26 -69 0 -8 9 -23 19 -35 10 -11
26 -34 35 -51 18 -35 86 -212 118 -307 11 -33 30 -82 43 -110 40 -87 55 -125
55 -143 1 -41 33 -60 140 -82 58 -12 139 -33 180 -46 162 -53 201 -58 365 -45
83 6 204 11 270 11 66 0 185 5 265 10 139 9 286 13 870 25 146 3 297 10 335
14 39 5 142 9 230 11 137 2 253 6 330 12 11 0 36 0 55 -1 81 -4 1060 8 1068
13 5 3 47 5 93 4 47 -1 91 2 97 6 22 13 126 18 412 20 151 1 281 5 288 9 6 5
12 4 12 -1 0 -5 24 -8 53 -6 28 1 110 -2 180 -8 93 -8 132 -7 140 1 16 16 3
23 -50 26 -26 2 -111 10 -188 18 -77 9 -168 14 -202 12 -59 -4 -83 5 -47 19
22 9 236 6 319 -3 39 -5 74 -5 80 0 5 6 1 9 -10 9 -11 1 -54 5 -95 11 -41 6
-100 12 -130 14 -72 6 -102 13 -95 25 6 9 75 8 218 -6 34 -3 57 -1 57 5 0 15
-95 31 -213 35 -102 4 -128 9 -115 22 12 11 338 3 430 -12 15 -2 29 0 32 5 6
9 -64 21 -126 21 -21 0 -68 7 -105 16 -83 21 -63 37 29 24 37 -5 88 -9 115 -9
26 1 78 -2 116 -6 42 -5 67 -4 67 2 0 13 -73 23 -166 23 -40 0 -95 4 -121 9
-26 6 -70 13 -97 16 -34 5 -45 10 -38 17 19 19 344 5 439 -18 13 -4 23 -2 23
4 0 5 -33 14 -72 20 -166 26 -238 34 -250 30 -19 -7 -151 16 -155 27 -4 14
379 1 436 -14 45 -12 62 -8 44 10 -10 10 -134 26 -268 35 -82 5 -125 15 -125
29 0 18 257 12 330 -7 118 -32 210 -51 216 -45 5 5 -8 9 -116 41 -71 20 -199
42 -325 56 -152 17 -166 20 -159 31 10 17 341 -5 409 -26 68 -22 95 -26 95
-15 0 5 -13 10 -30 10 -16 0 -30 4 -30 9 0 13 -302 63 -327 54 -11 -4 -14 -2
-11 8 4 10 24 14 81 14 41 0 79 4 83 8 12 11 -16 27 -48 27 -38 0 -35 16 3 24
40 8 186 -2 221 -15 14 -6 37 -9 50 -7 22 4 22 5 -7 17 -16 7 -43 14 -60 16
-16 2 -53 10 -82 18 -28 8 -54 13 -57 10 -2 -3 -13 0 -23 5 -15 9 -15 11 -3
16 36 11 76 13 93 5 9 -6 68 -19 130 -30 61 -12 118 -25 125 -31 8 -7 12 -7
12 0 0 8 -15 18 -40 27 -3 1 -12 4 -20 8 -8 3 -28 8 -45 11 -57 12 -145 41
-145 49 0 9 17 9 124 -3 49 -6 91 -9 93 -6 2 2 -43 17 -101 32 -58 16 -106 33
-106 37 0 13 127 -3 227 -29 103 -27 103 -27 103 -15 0 5 -31 22 -70 37 -114
47 -82 62 41 19 95 -33 85 -10 -12 28 -137 54 -149 61 -140 70 15 15 231 -46
231 -65 0 -4 5 -8 10 -8 27 0 4 21 -47 45 -32 14 -78 37 -103 50 -25 13 -65
28 -89 35 -28 7 -40 15 -34 21 11 11 131 -14 175 -37 17 -9 28 -10 28 -4 0 6
-11 15 -25 20 -14 5 -45 19 -70 30 -24 11 -82 32 -127 46 -101 32 -123 49 -53
39 28 -3 62 -8 75 -9 14 -2 60 -18 102 -35 86 -36 132 -37 53 -2 -99 45 -171
69 -228 76 -31 4 -60 11 -62 15 -7 12 32 23 46 14 7 -4 27 -7 45 -6 18 1 36
-3 39 -8 3 -5 12 -7 19 -4 15 6 60 -8 180 -55 85 -34 111 -35 49 -1 -21 11
-56 31 -78 45 -22 13 -48 24 -57 25 -20 0 -87 41 -88 54 0 11 31 3 98 -23 28
-11 52 -17 52 -12 0 5 -10 12 -22 16 -20 5 -158 63 -243 100 l-30 14 27 0 c33
1 104 -15 177 -41 68 -24 76 -17 16 12 -32 15 -43 26 -36 33 9 9 71 -7 146
-38 42 -18 -29 42 -82 69 -51 25 -68 46 -39 46 8 0 21 -6 28 -12 12 -12 110
-50 115 -45 10 11 -204 130 -265 148 -23 7 -47 18 -53 26 -17 20 41 6 125 -29
37 -16 70 -27 72 -25 6 5 -63 47 -77 47 -5 0 -9 7 -9 16 0 13 7 15 35 11 50
-8 36 6 -32 34 -68 27 -128 65 -116 72 5 3 15 2 23 -4 19 -11 30 -11 30 1 0
16 -104 60 -177 74 -37 8 -81 19 -96 25 -16 6 -38 11 -51 11 -12 0 -31 7 -42
16 -18 14 -15 15 37 10 73 -7 205 -41 288 -73 120 -46 141 -56 141 -65 0 -4 5
-8 10 -8 6 0 10 8 10 18 0 12 -14 22 -47 31 -27 8 -55 18 -63 22 -65 33 -251
85 -415 115 -230 41 -406 49 -584 24 -61 -8 -87 -8 -95 0 -17 17 -21 223 -5
236 8 6 70 26 139 44 123 33 128 33 363 36 131 1 240 4 243 7 3 2 -32 10 -78
17 -148 21 -403 0 -532 -44 -41 -14 -90 -26 -109 -26 l-35 0 -4 68 c-3 37 -6
229 -7 427 -3 321 -11 996 -12 1035 -1 8 -1 139 -1 290 0 151 0 367 0 480 0
113 0 306 1 430 0 124 -1 239 -4 255 -2 17 -5 56 -6 88 -1 31 -6 60 -10 63 -5
3 -7 9 -4 14 3 5 1 17 -4 27 -6 10 -35 79 -67 153 -31 74 -73 162 -93 195 -21
33 -53 92 -73 130 -33 67 -124 202 -172 255 -12 14 -39 52 -60 85 -52 80 -182
216 -330 344 -52 45 -92 69 -160 97 -50 19 -98 42 -107 50 -8 8 -28 14 -44 14
-59 0 -204 42 -249 72 -54 35 -63 61 -49 138 6 30 9 133 8 228 -2 95 1 172 6
172 5 0 9 7 9 15 0 8 -4 15 -9 15 -4 0 -8 66 -7 148 0 81 0 161 -2 177 -2 17
-2 37 -2 45 1 8 -1 54 -4 103 -5 100 -14 88 113 144 40 17 81 39 90 47 10 9
23 16 29 16 17 0 102 60 115 81 7 11 17 19 24 19 7 0 13 3 13 8 0 4 21 30 46
57 25 28 51 60 57 72 13 25 154 173 165 173 4 0 15 12 25 26 18 24 18 26 2 44
-14 16 -30 19 -97 17 -76 -2 -81 0 -104 26 -23 27 -44 84 -44 123 0 15 8 24
26 28 34 9 89 65 120 123 22 41 24 56 20 106 -7 63 -11 74 -56 141 -45 67
-142 113 -283 136 -160 26 -201 45 -320 149 -205 179 -197 170 -197 237 0 34
-5 65 -12 72 -17 17 28 53 141 112 81 43 86 47 93 85 5 22 12 49 17 60 12 29
31 84 43 125 5 19 14 40 19 46 5 6 17 37 28 70 32 97 65 179 73 182 4 2 8 14
8 27 0 13 7 36 14 52 16 31 28 63 30 78 1 6 9 25 19 44 11 18 21 47 23 64 2
17 8 33 13 37 27 16 27 53 0 109 -47 94 -151 371 -210 561 -17 52 -39 113 -50
136 -10 23 -19 45 -19 50 0 13 -66 62 -215 161 -71 47 -141 94 -155 105 -14
10 -72 54 -130 96 l-105 77 -280 0 c-154 0 -309 -2 -345 -5z"/>
<path d="M6555 1970 c3 -5 13 -10 21 -10 8 0 14 5 14 10 0 6 -9 10 -21 10 -11
0 -17 -4 -14 -10z"/>
<path d="M6702 1870 c1 -5 31 -23 66 -40 35 -16 60 -25 57 -20 -9 14 -127 72
-123 60z"/>
<path d="M6726 1791 c20 -19 124 -71 124 -62 0 5 -27 23 -60 40 -59 31 -83 39
-64 22z"/>
<path d="M6911 1757 c2 -1 13 -9 24 -17 19 -14 19 -14 6 3 -7 9 -18 17 -24 17
-6 0 -8 -1 -6 -3z"/>
<path d="M6965 1720 c3 -5 8 -10 11 -10 2 0 4 5 4 10 0 6 -5 10 -11 10 -5 0
-7 -4 -4 -10z"/>
<path d="M6870 1413 c0 -5 20 -23 45 -41 28 -20 45 -27 45 -18 0 7 -10 18 -22
24 -13 7 -33 19 -45 28 -13 9 -23 12 -23 7z"/>
<path d="M6790 1375 c0 -16 16 -20 24 -6 3 5 -1 11 -9 15 -9 3 -15 0 -15 -9z"/>
<path d="M6795 1310 c3 -5 13 -10 21 -10 8 0 14 5 14 10 0 6 -9 10 -21 10 -11
0 -17 -4 -14 -10z"/>
<path d="M6861 1171 c-10 -6 -10 -10 -1 -16 13 -8 24 -1 19 14 -3 6 -10 7 -18
2z"/>
<path d="M6620 990 c0 -5 7 -10 16 -10 8 0 12 5 9 10 -3 6 -10 10 -16 10 -5 0
-9 -4 -9 -10z"/>
<path d="M6370 973 c0 -6 21 -13 48 -16 26 -3 67 -9 92 -12 l45 -6 -32 15
c-41 19 -153 32 -153 19z"/>
<path d="M6705 960 c28 -11 55 -18 60 -16 15 6 -60 36 -87 36 -15 -1 -6 -8 27
-20z"/>
<path d="M6802 931 c4 -13 18 -16 19 -4 0 4 -5 9 -11 12 -7 2 -11 -2 -8 -8z"/>
<path d="M6712 768 c3 -7 15 -15 28 -16 21 -3 22 -2 11 12 -16 19 -44 21 -39
4z"/>
<path d="M6500 640 c0 -5 18 -10 40 -10 22 0 40 5 40 10 0 6 -18 10 -40 10
-22 0 -40 -4 -40 -10z"/>
<path d="M6410 601 c0 -5 14 -11 30 -13 20 -3 30 0 30 9 0 8 -12 13 -30 13
-16 0 -30 -4 -30 -9z"/>
<path d="M6297 553 c-4 -3 1 -12 10 -18 13 -9 22 -10 34 -2 10 6 15 15 13 19
-6 10 -48 11 -57 1z"/>
<path d="M6323 493 c4 -6 30 -13 59 -16 29 -4 68 -9 86 -11 24 -4 32 -1 32 10
0 10 -10 14 -32 14 -18 -1 -60 2 -92 6 -39 5 -57 4 -53 -3z"/>
</g>
</svg>
